<svg width="201" height="263" viewBox="0 0 201 263" fill="none" xmlns="http://www.w3.org/2000/svg">
<path d="M200.305 131.576C200.305 169.403 179.714 199.966 157.215 222.064C141.909 236.858 124.732 249.585 106.124 259.922C102.369 262.015 100.153 262.999 100.153 262.999C100.153 262.999 97.9365 261.953 94.1816 259.922C75.5727 249.585 58.3963 236.858 43.0896 222.064C20.5907 199.966 0 169.403 0 131.576C0 48.1362 3.07783 54.6304 3.07783 54.6304C15.7653 47.5925 29.1817 41.9576 43.0896 37.8254C53.162 34.7529 63.4501 32.438 73.8679 30.9003C82.5695 29.6024 91.3546 28.9442 100.153 28.9307C108.95 28.9442 117.735 29.6024 126.437 30.9003C136.855 32.438 147.143 34.7529 157.215 37.8254C171.123 41.9576 184.54 47.5925 197.227 54.6304C197.227 54.6304 200.305 48.1362 200.305 131.576Z" fill="#829EF5"/>
<path d="M157.215 0V222.065C141.909 236.859 124.732 249.586 106.124 259.923V51.0919L157.215 0Z" fill="#7F4E8E"/>
<path d="M94.1818 51.0919V259.923C75.5729 249.586 58.3965 236.859 43.0898 222.065V0L73.8681 30.7783L94.1818 51.0919Z" fill="#D9378E"/>
</svg>
