<svg width="14" height="15" viewBox="0 0 14 15" fill="none" xmlns="http://www.w3.org/2000/svg">
<g id="Iconly/Bulk/Paper Plus">
<g id="Paper Plus">
<path id="Fill 3" opacity="0.4" d="M10.9731 5.76258C10.7097 5.76258 10.3609 5.75674 9.92651 5.75674C8.86721 5.75674 7.9962 4.87999 7.9962 3.81074V1.93474C7.9962 1.78716 7.8778 1.66699 7.73224 1.66699H4.64675C3.20682 1.66699 2.04297 2.84883 2.04297 4.29724V10.5827C2.04297 12.1022 3.26226 13.3337 4.76689 13.3337H9.36105C10.7964 13.3337 11.9596 12.1594 11.9596 10.7098V6.02508C11.9596 5.87691 11.8418 5.75733 11.6951 5.75791C11.449 5.75966 11.1527 5.76258 10.9731 5.76258Z" fill="white"/>
<path id="Fill 1" opacity="0.4" d="M9.38517 1.99812C9.21075 1.8167 8.90625 1.94154 8.90625 2.19295V3.7312C8.90625 4.37637 9.43767 4.9072 10.0823 4.9072C10.4894 4.91187 11.0541 4.91304 11.5336 4.91187C11.7792 4.91129 11.904 4.61787 11.7337 4.44054C11.1183 3.80062 10.0163 2.65379 9.38517 1.99812Z" fill="white"/>
<path id="Fill 6" d="M8.38441 7.63829H7.37641V6.63087C7.37641 6.39112 7.18216 6.19629 6.94241 6.19629C6.70266 6.19629 6.50782 6.39112 6.50782 6.63087V7.63829H5.50041C5.26066 7.63829 5.06641 7.83312 5.06641 8.07287C5.06641 8.31262 5.26066 8.50746 5.50041 8.50746H6.50782V9.51429C6.50782 9.75404 6.70266 9.94887 6.94241 9.94887C7.18216 9.94887 7.37641 9.75404 7.37641 9.51429V8.50746H8.38441C8.62416 8.50746 8.81899 8.31262 8.81899 8.07287C8.81899 7.83312 8.62416 7.63829 8.38441 7.63829Z" fill="white"/>
</g>
</g>
</svg>
