<svg width="16" height="17" viewBox="0 0 16 17" fill="none" xmlns="http://www.w3.org/2000/svg">
<path fill-rule="evenodd" clip-rule="evenodd" d="M13.8729 5.58225L13.4579 4.86219C13.1069 4.2529 12.3289 4.04272 11.7188 4.39232V4.39232C11.4284 4.5634 11.0818 4.61194 10.7556 4.52723C10.4293 4.44252 10.1502 4.23152 9.97968 3.94075C9.87 3.75594 9.81105 3.54543 9.80882 3.33053V3.33053C9.81872 2.98599 9.68873 2.65211 9.44847 2.40495C9.20822 2.1578 8.87815 2.01841 8.53346 2.01855H7.69746C7.35977 2.01855 7.036 2.15311 6.79779 2.39247C6.55958 2.63182 6.42657 2.95623 6.4282 3.29392V3.29392C6.41819 3.99112 5.85011 4.55104 5.15283 4.55097C4.93793 4.54874 4.72743 4.4898 4.54261 4.38011V4.38011C3.9325 4.03051 3.15453 4.2407 2.80348 4.84998L2.35802 5.58225C2.0074 6.19077 2.21472 6.96824 2.82179 7.32138V7.32138C3.21639 7.5492 3.45948 7.97023 3.45948 8.42588C3.45948 8.88152 3.21639 9.30256 2.82179 9.53038V9.53038C2.21549 9.88113 2.00794 10.6567 2.35802 11.2634V11.2634L2.77907 11.9896C2.94355 12.2864 3.21953 12.5054 3.54592 12.5981C3.87231 12.6909 4.22222 12.6498 4.5182 12.4838V12.4838C4.80918 12.3141 5.15592 12.2675 5.48135 12.3546C5.80678 12.4417 6.08395 12.6552 6.25123 12.9476C6.36092 13.1324 6.41986 13.3429 6.42209 13.5578V13.5578C6.42209 14.2622 6.99309 14.8332 7.69746 14.8332H8.53346C9.23545 14.8332 9.80546 14.2659 9.80882 13.5639V13.5639C9.80719 13.2252 9.94103 12.8999 10.1806 12.6603C10.4201 12.4208 10.7454 12.2869 11.0842 12.2886C11.2986 12.2943 11.5082 12.353 11.6944 12.4594V12.4594C12.3029 12.8101 13.0804 12.6027 13.4335 11.9957V11.9957L13.8729 11.2634C14.043 10.9715 14.0896 10.6238 14.0026 10.2974C13.9155 9.971 13.702 9.69274 13.4091 9.52428V9.52428C13.1163 9.35581 12.9027 9.07756 12.8157 8.75113C12.7286 8.42471 12.7753 8.07705 12.9454 7.78515C13.056 7.59206 13.216 7.43197 13.4091 7.32138V7.32138C14.0126 6.96843 14.2194 6.1955 13.8729 5.58835V5.58835V5.58225Z" stroke="#262B2B" stroke-linecap="round" stroke-linejoin="round"/>
<circle opacity="0.4" cx="8.11681" cy="8.42589" r="1.75744" stroke="#262B2B" stroke-linecap="round" stroke-linejoin="round"/>
</svg>
