<svg width="16" height="16" viewBox="0 0 16 16" fill="none" xmlns="http://www.w3.org/2000/svg">
<path opacity="0.4" d="M12.883 6.3125C12.883 6.3125 12.521 10.8025 12.311 12.6938C12.211 13.5972 11.653 14.1265 10.739 14.1432C8.9997 14.1745 7.25836 14.1765 5.5197 14.1398C4.64036 14.1218 4.0917 13.5858 3.9937 12.6985C3.78236 10.7905 3.42236 6.3125 3.42236 6.3125" stroke="#262B2B" stroke-linecap="round" stroke-linejoin="round"/>
<path d="M13.8053 4.15951H2.5" stroke="#262B2B" stroke-linecap="round" stroke-linejoin="round"/>
<path d="M11.6269 4.15998C11.1036 4.15998 10.6529 3.78998 10.5502 3.27732L10.3882 2.46665C10.2882 2.09265 9.94956 1.83398 9.56356 1.83398H6.74156C6.35556 1.83398 6.01689 2.09265 5.91689 2.46665L5.75489 3.27732C5.65222 3.78998 5.20156 4.15998 4.67822 4.15998" stroke="#262B2B" stroke-linecap="round" stroke-linejoin="round"/>
</svg>
