<svg width="24" height="25" viewBox="0 0 24 25" fill="none" xmlns="http://www.w3.org/2000/svg">
<path d="M7.15309 14.2809L5.68184 16.7542L4.20128 19.3978C4.12538 19.5333 4.08742 19.6011 4.10616 19.6492C4.11197 19.6642 4.12093 19.6776 4.13232 19.6884C4.16902 19.7233 4.24241 19.7086 4.3892 19.6792L7.07481 19.1419C7.13581 19.1297 7.1663 19.1236 7.19263 19.1346C7.20119 19.1382 7.20927 19.143 7.21664 19.149C7.2393 19.1673 7.2509 19.1986 7.2741 19.2611L8.23851 21.8623C8.28976 22.0005 8.31539 22.0697 8.35996 22.0856C8.37386 22.0905 8.38854 22.0921 8.40289 22.0902C8.44889 22.0842 8.4831 22.0216 8.55151 21.8964L9.85887 19.5035L10.6998 18.0021L11.1202 17.2514L11.6266 16.2137" stroke="#F9D776" stroke-width="1.5" stroke-linejoin="round"/>
<path d="M12.1947 16.4917L13.8165 19.3884L15.1255 21.8233C15.1953 21.9531 15.2302 22.018 15.2802 22.0301C15.2957 22.0339 15.3118 22.0344 15.3271 22.0316C15.3762 22.0227 15.406 21.9599 15.4655 21.8343L16.5797 19.4831C16.6036 19.4325 16.6156 19.4073 16.638 19.3933C16.6454 19.3887 16.6534 19.3851 16.6619 19.3825C16.688 19.3747 16.7186 19.3808 16.7797 19.393L19.4865 19.9339C19.6267 19.9619 19.6969 19.9759 19.7333 19.9482C19.7447 19.9396 19.7536 19.9286 19.7595 19.916C19.7785 19.8759 19.7455 19.8163 19.6797 19.697L18.4772 17.5204L17.7309 16.1324L17.3578 15.4383L16.7989 14.5366" stroke="#F9D776" stroke-width="1.5" stroke-linejoin="round"/>
<path d="M12.0569 5.92737C12.1024 5.79056 12.2959 5.79056 12.3415 5.92737L13.0854 8.16132C13.1058 8.2226 13.1632 8.26393 13.2277 8.26393H15.6271C15.7733 8.26393 15.8332 8.45175 15.7139 8.5363L13.7791 9.90785C13.7253 9.94603 13.7027 10.015 13.7236 10.0776L14.4641 12.3013C14.5099 12.4388 14.3533 12.5549 14.235 12.471L12.2859 11.0894C12.234 11.0525 12.1644 11.0525 12.1124 11.0894L10.1634 12.471C10.0451 12.5549 9.88849 12.4388 9.9343 12.3013L10.6748 10.0776C10.6957 10.015 10.6731 9.94603 10.6192 9.90785L8.68447 8.5363C8.5652 8.45175 8.62502 8.26393 8.77122 8.26393H11.1706C11.2352 8.26393 11.2925 8.2226 11.3129 8.16132L12.0569 5.92737Z" stroke="#F9D776" stroke-width="1.5"/>
<ellipse cx="12.1991" cy="9.5" rx="7.17424" ry="7" stroke="#F3BB1C" stroke-width="1.5"/>
</svg>
