<svg width="14" height="15" viewBox="0 0 14 15" fill="none" xmlns="http://www.w3.org/2000/svg">
<g id="Iconly/Bulk/Scan">
<g id="Scan">
<path id="Combined Shape" opacity="0.4" fill-rule="evenodd" clip-rule="evenodd" d="M5.35745 2.68588C5.35745 2.44506 5.15853 2.25 4.91353 2.25H4.91295L3.9627 2.25057C2.68461 2.25172 1.64453 3.27277 1.64453 4.52663V5.61117C1.64453 5.85142 1.84345 6.04705 2.08845 6.04705C2.33345 6.04705 2.53295 5.85142 2.53295 5.61117V4.52663C2.53295 3.75269 3.17461 3.1229 3.96328 3.12175L4.91353 3.12118C5.15912 3.12118 5.35745 2.92612 5.35745 2.68588ZM10.0268 2.25014H9.09756C8.85256 2.25014 8.65365 2.4452 8.65365 2.68602C8.65365 2.92627 8.85256 3.12075 9.09756 3.12075H10.0268C10.8184 3.12075 11.4624 3.75226 11.4624 4.52849V5.61131C11.4624 5.85156 11.6613 6.04719 11.9063 6.04719C12.1519 6.04719 12.3502 5.85156 12.3502 5.61131V4.52849C12.3502 3.27176 11.3084 2.25014 10.0268 2.25014ZM5.38695 4.43323H8.60928C8.9622 4.43323 9.30112 4.57223 9.54787 4.81991C9.79637 5.06988 9.93403 5.40566 9.93345 5.75516V6.48162C9.93053 6.56685 9.86112 6.63607 9.7742 6.63835H4.22087C4.13453 6.63549 4.06512 6.56628 4.06337 6.48162V5.75516C4.05695 5.03156 4.64962 4.44066 5.38695 4.43323Z" fill="white"/>
<path id="Fill 7" d="M12.9714 7.52393H1.02653C0.781531 7.52393 0.582031 7.71898 0.582031 7.9598C0.582031 8.20005 0.781531 8.39454 1.02653 8.39454H1.64545V10.4732C1.64545 11.7271 2.68611 12.7482 3.9642 12.7493L4.91445 12.7499C5.16003 12.7499 5.35837 12.5548 5.35895 12.314C5.35895 12.0737 5.16003 11.8787 4.91503 11.8787L3.96536 11.8781C3.17611 11.877 2.53386 11.2472 2.53386 10.4732V8.39454H4.06395V8.97284C4.05811 9.69645 4.6502 10.2879 5.38753 10.2948H8.60987C9.34778 10.2879 9.93987 9.69645 9.93403 8.97284V8.39454H11.4641V10.471C11.4641 11.2478 10.8201 11.8787 10.0285 11.8787H9.09928C8.8537 11.8787 8.65478 12.0737 8.65478 12.314C8.65478 12.5548 8.8537 12.7499 9.09928 12.7499H10.0285C11.3095 12.7499 12.3519 11.7283 12.3519 10.471V8.39454H12.9714C13.2164 8.39454 13.4154 8.20005 13.4154 7.9598C13.4154 7.71898 13.2164 7.52393 12.9714 7.52393Z" fill="white"/>
</g>
</g>
</svg>
