<svg width="14" height="15" viewBox="0 0 14 15" fill="none" xmlns="http://www.w3.org/2000/svg">
<g id="Iconly/Bulk/Swap">
<g id="Swap">
<path id="Fill 1" opacity="0.4" d="M3.91373 8.01953C3.61266 8.01953 3.36894 8.26688 3.36894 8.57242L3.21875 11.2433C3.21875 11.6327 3.53006 11.948 3.91373 11.948C4.2974 11.948 4.60803 11.6327 4.60803 11.2433L4.45852 8.57242C4.45852 8.26688 4.2148 8.01953 3.91373 8.01953Z" fill="white"/>
<path id="Fill 3" d="M4.65652 2.64284C4.65652 2.64284 4.50018 2.4821 4.40324 2.41213C4.2626 2.30404 4.0892 2.25 3.91648 2.25C3.7226 2.25 3.54237 2.31097 3.39559 2.42598C3.36896 2.453 3.25564 2.55485 3.16211 2.64977C2.57499 3.20474 1.61445 4.65349 1.32089 5.41215C1.27447 5.52717 1.17411 5.81816 1.16797 5.97405C1.16797 6.12232 1.20074 6.26505 1.26764 6.40015C1.36117 6.56921 1.50795 6.70501 1.68135 6.77914C1.80151 6.82695 2.16128 6.90108 2.16811 6.90108C2.56202 6.97591 3.20239 7.01609 3.90965 7.01609C4.58347 7.01609 5.19721 6.97591 5.59726 6.91494C5.60409 6.90801 6.05057 6.83388 6.20418 6.75212C6.48408 6.60316 6.65817 6.31216 6.65817 6.00107V5.97405C6.65134 5.77105 6.47725 5.34425 6.47111 5.34425C6.17755 4.62647 5.26343 3.21167 4.65652 2.64284Z" fill="white"/>
<path id="Fill 6" opacity="0.4" d="M10.0895 6.98077C10.3906 6.98077 10.6343 6.73342 10.6343 6.42787L10.7838 3.75689C10.7838 3.3675 10.4732 3.05225 10.0895 3.05225C9.70584 3.05225 9.39453 3.3675 9.39453 3.75689L9.54472 6.42787C9.54472 6.73342 9.78844 6.98077 10.0895 6.98077Z" fill="white"/>
<path id="Fill 8" d="M12.7343 8.59984C12.6407 8.43078 12.494 8.29567 12.3206 8.22085C12.2004 8.17304 11.8399 8.0989 11.8338 8.0989C11.4399 8.02407 10.7995 7.98389 10.0923 7.98389C9.41845 7.98389 8.80471 8.02407 8.40465 8.08504C8.39782 8.09197 7.95134 8.1668 7.79774 8.24787C7.51715 8.39683 7.34375 8.68783 7.34375 8.99962V9.02664C7.35058 9.22965 7.52398 9.65576 7.53081 9.65576C7.82436 10.3736 8.7378 11.7891 9.3454 12.3572C9.3454 12.3572 9.50173 12.518 9.59868 12.5873C9.73863 12.696 9.91203 12.7501 10.0861 12.7501C10.2793 12.7501 10.4589 12.6891 10.6063 12.5741C10.633 12.5471 10.7463 12.4452 10.8398 12.351C11.4262 11.7953 12.3875 10.3465 12.6803 9.58855C12.7274 9.47354 12.8278 9.18184 12.8339 9.02664C12.8339 8.87768 12.8012 8.73495 12.7343 8.59984Z" fill="white"/>
</g>
</g>
</svg>
