<svg width="14" height="14" viewBox="0 0 14 14" fill="none" xmlns="http://www.w3.org/2000/svg">
<g id="Iconly/Bulk/Chart">
<g id="Chart">
<path id="Fill 1" opacity="0.4" d="M9.72676 1.16699H4.27713C2.2912 1.16699 1.16602 2.29218 1.16602 4.2781V9.72255C1.16602 11.7085 2.2912 12.8337 4.27713 12.8337H9.72676C11.7127 12.8337 12.8327 11.7085 12.8327 9.72255V4.2781C12.8327 2.29218 11.7127 1.16699 9.72676 1.16699" fill="white"/>
<path id="Fill 4" d="M4.29765 5.46582C4.03321 5.46582 3.81543 5.6836 3.81543 5.95323V9.96138C3.81543 10.2258 4.03321 10.4436 4.29765 10.4436C4.56728 10.4436 4.78506 10.2258 4.78506 9.96138V5.95323C4.78506 5.6836 4.56728 5.46582 4.29765 5.46582" fill="white"/>
<path id="Fill 6" d="M7.02031 3.55225C6.75586 3.55225 6.53809 3.77002 6.53809 4.03965V9.96114C6.53809 10.2256 6.75586 10.4434 7.02031 10.4434C7.28994 10.4434 7.50772 10.2256 7.50772 9.96114V4.03965C7.50772 3.77002 7.28994 3.55225 7.02031 3.55225" fill="white"/>
<path id="Fill 8" d="M9.70616 7.58105C9.43653 7.58105 9.21875 7.79883 9.21875 8.06846V9.96105C9.21875 10.2255 9.43653 10.4433 9.70097 10.4433C9.9706 10.4433 10.1884 10.2255 10.1884 9.96105V8.06846C10.1884 7.79883 9.9706 7.58105 9.70616 7.58105" fill="white"/>
</g>
</g>
</svg>
