<svg width="14" height="15" viewBox="0 0 14 15" fill="none" xmlns="http://www.w3.org/2000/svg">
<g id="Iconly/Bulk/Discovery">
<g id="Discovery">
<path id="Fill 1" opacity="0.4" d="M12.8346 7.49984C12.8346 10.7216 10.2231 13.3332 7.0013 13.3332C3.77955 13.3332 1.16797 10.7216 1.16797 7.49984C1.16797 4.27867 3.77955 1.6665 7.0013 1.6665C10.2231 1.6665 12.8346 4.27867 12.8346 7.49984Z" fill="white"/>
<path id="Fill 4" d="M9.25419 5.57797L8.30919 8.56464C8.27419 8.68714 8.17502 8.7863 8.05252 8.82189L5.07752 9.75464C4.87919 9.81939 4.68669 9.6263 4.75085 9.42797L5.68419 6.43547C5.71919 6.31297 5.81835 6.21964 5.94085 6.1788L8.92752 5.24547C9.13169 5.1813 9.31835 5.3738 9.25419 5.57797Z" fill="white"/>
</g>
</g>
</svg>
