<svg width="16" height="17" viewBox="0 0 16 17" fill="none" xmlns="http://www.w3.org/2000/svg">
<g id="Iconly/Two-tone/Star">
<g id="Star">
<path id="Stroke 1" fill-rule="evenodd" clip-rule="evenodd" d="M8.73617 3.28483L9.95445 5.71867C10.0738 5.9576 10.3043 6.12328 10.5716 6.16162L13.2969 6.55391C13.9702 6.65112 14.2382 7.46719 13.7509 7.93479L11.7801 9.82846C11.5864 10.0147 11.4983 10.2824 11.5441 10.5453L12.0092 13.2187C12.1237 13.8801 11.4198 14.3846 10.818 14.0717L8.38214 12.8086C8.14335 12.6847 7.85735 12.6847 7.61786 12.8086L5.182 14.0717C4.58015 14.3846 3.87626 13.8801 3.9915 13.2187L4.4559 10.5453C4.50171 10.2824 4.41355 10.0147 4.21988 9.82846L2.24912 7.93479C1.76181 7.46719 2.02976 6.65112 2.70311 6.55391L5.42843 6.16162C5.69569 6.12328 5.92685 5.9576 6.04625 5.71867L7.26383 3.28483C7.5651 2.68305 8.4349 2.68305 8.73617 3.28483Z" stroke="#262B2B" stroke-linecap="round" stroke-linejoin="round"/>
</g>
</g>
</svg>
