<svg width="16" height="17" viewBox="0 0 16 17" fill="none" xmlns="http://www.w3.org/2000/svg">
<g id="Iconly/Bulk/Setting">
<g id="Setting">
<path id="Path" d="M8.00912 10.3868C6.93948 10.3868 6.07422 9.55345 6.07422 8.50678C6.07422 7.46012 6.93948 6.62012 8.00912 6.62012C9.07877 6.62012 9.92359 7.46012 9.92359 8.50678C9.92359 9.55345 9.07877 10.3868 8.00912 10.3868Z" fill="white"/>
<path id="Path_2" opacity="0.4" d="M14.1547 10.0802C14.0253 9.88016 13.8413 9.68016 13.6029 9.5535C13.4121 9.46016 13.2895 9.30683 13.1805 9.12683C12.833 8.5535 13.0374 7.80016 13.6165 7.46016C14.2978 7.08016 14.5158 6.2335 14.1207 5.5735L13.6642 4.78683C13.2758 4.12683 12.4242 3.8935 11.7497 4.28016C11.1502 4.60016 10.3803 4.38683 10.0328 3.82016C9.92382 3.6335 9.8625 3.4335 9.87613 3.2335C9.89657 2.9735 9.81481 2.72683 9.69218 2.52683C9.44009 2.1135 8.98362 1.8335 8.47945 1.8335H7.51881C7.02146 1.84683 6.56499 2.1135 6.3129 2.52683C6.18346 2.72683 6.10851 2.9735 6.12214 3.2335C6.13576 3.4335 6.07445 3.6335 5.96544 3.82016C5.61797 4.38683 4.8481 4.60016 4.25536 4.28016C3.57406 3.8935 2.72924 4.12683 2.33408 4.78683L1.87761 5.5735C1.48926 6.2335 1.70728 7.08016 2.38177 7.46016C2.96088 7.80016 3.16527 8.5535 2.82462 9.12683C2.7088 9.30683 2.58617 9.46016 2.3954 9.5535C2.16376 9.68016 1.95936 9.88016 1.85036 10.0802C1.59827 10.4935 1.6119 11.0135 1.86398 11.4468L2.33408 12.2468C2.58617 12.6735 3.05627 12.9402 3.54681 12.9402C3.77845 12.9402 4.05097 12.8735 4.26899 12.7402C4.43931 12.6268 4.64371 12.5868 4.86854 12.5868C5.54303 12.5868 6.10851 13.1402 6.12214 13.8002C6.12214 14.5668 6.74894 15.1668 7.53925 15.1668H8.46583C9.24933 15.1668 9.87613 14.5668 9.87613 13.8002C9.89657 13.1402 10.4621 12.5868 11.1365 12.5868C11.3546 12.5868 11.559 12.6268 11.7361 12.7402C11.9541 12.8735 12.2198 12.9402 12.4583 12.9402C12.942 12.9402 13.4121 12.6735 13.6642 12.2468L14.1411 11.4468C14.3864 11.0002 14.4068 10.4935 14.1547 10.0802Z" fill="white"/>
</g>
</g>
</svg>
