<svg width="34" height="34" viewBox="0 0 34 34" fill="none" xmlns="http://www.w3.org/2000/svg">
<path opacity="0.4" d="M6.69059 29.9869C6.67218 29.9869 6.65518 29.9869 6.63534 29.9855C6.18909 29.9628 5.75134 29.8665 5.33484 29.6979C3.28493 28.8649 2.29609 26.5231 3.12768 24.4746L13.4991 6.30445C13.8561 5.65845 14.3973 5.11729 15.0574 4.75179C16.9912 3.68079 19.4363 4.38487 20.5059 6.3172L30.8093 24.3485C31.0388 24.8883 31.1366 25.3275 31.1607 25.7751C31.2159 26.8461 30.8504 27.8732 30.1336 28.668C29.4168 29.4627 28.4322 29.9316 27.3626 29.9855L6.79259 29.9869H6.69059Z" fill="#F03738"/>
<path fill-rule="evenodd" clip-rule="evenodd" d="M15.7598 14.1956C15.7598 13.5128 16.3165 12.9561 16.9993 12.9561C17.6822 12.9561 18.2389 13.5128 18.2389 14.1956V18.202C18.2389 18.8862 17.6822 19.4416 16.9993 19.4416C16.3165 19.4416 15.7598 18.8862 15.7598 18.202V14.1956ZM15.7598 23.0485C15.7598 22.3614 16.3165 21.8019 16.9993 21.8019C17.6822 21.8019 18.2389 22.3544 18.2389 23.0329C18.2389 23.7314 17.6822 24.2881 16.9993 24.2881C16.3165 24.2881 15.7598 23.7314 15.7598 23.0485Z" fill="#F03738"/>
</svg>
