<svg width="24" height="24" viewBox="0 0 24 24" fill="none" xmlns="http://www.w3.org/2000/svg">
<g id="Iconly/Bulk/Paper Download">
<g id="Paper Download">
<path id="Fill 3" opacity="0.4" d="M18.8089 9.021C18.3574 9.021 17.7594 9.011 17.0149 9.011C15.199 9.011 13.7059 7.508 13.7059 5.675V2.459C13.7059 2.206 13.503 2 13.2525 2H7.96436C5.49604 2 3.5 4.026 3.5 6.509V17.284C3.5 19.889 5.59109 22 8.1703 22H16.0455C18.5059 22 20.5 19.987 20.5 17.502V9.471C20.5 9.217 20.298 9.012 20.0465 9.013C19.6238 9.016 19.1168 9.021 18.8089 9.021Z" fill="#3E66FB"/>
<path id="Fill 1" opacity="0.4" d="M16.0847 2.56731C15.7857 2.25631 15.2637 2.47031 15.2637 2.90131V5.53831C15.2637 6.64431 16.1737 7.55431 17.2797 7.55431C17.9777 7.56231 18.9457 7.56431 19.7677 7.56231C20.1887 7.56131 20.4027 7.05831 20.1107 6.75431C19.0557 5.65731 17.1667 3.69131 16.0847 2.56731Z" fill="#3E66FB"/>
<path id="Fill 6" d="M15.1057 12.7089C14.8137 12.4199 14.3437 12.4179 14.0517 12.7109L12.4627 14.3079V9.4809C12.4627 9.0699 12.1287 8.7359 11.7177 8.7359C11.3067 8.7359 10.9727 9.0699 10.9727 9.4809V14.3079L9.38273 12.7109C9.09173 12.4179 8.62073 12.4199 8.32973 12.7089C8.03773 12.9989 8.03773 13.4699 8.32673 13.7619L11.1897 16.6379H11.1907C11.2587 16.7059 11.3397 16.7609 11.4307 16.7989C11.5207 16.8359 11.6187 16.8559 11.7177 16.8559C11.8177 16.8559 11.9157 16.8359 12.0057 16.7979C12.0947 16.7609 12.1757 16.7059 12.2437 16.6389L12.2457 16.6379L15.1077 13.7619C15.3977 13.4699 15.3977 12.9989 15.1057 12.7089Z" fill="#3E66FB"/>
</g>
</g>
</svg>
