<svg width="16" height="16" viewBox="0 0 16 16" fill="none" xmlns="http://www.w3.org/2000/svg">
<g id="Iconly/Bulk/Info Square">
<path id="Fill 1" opacity="0.4" d="M10.893 1.3335H5.11301C2.85301 1.3335 1.33301 2.92016 1.33301 5.28016V10.7268C1.33301 13.0802 2.85301 14.6668 5.11301 14.6668H10.893C13.153 14.6668 14.6663 13.0802 14.6663 10.7268V5.28016C14.6663 2.92016 13.153 1.3335 10.893 1.3335" fill="white"/>
<path id="Combined Shape" fill-rule="evenodd" clip-rule="evenodd" d="M7.41732 5.45931C7.41732 5.78064 7.67798 6.04264 7.99732 6.04264C8.32598 6.04264 8.58732 5.78064 8.58732 5.45931C8.58732 5.13798 8.32598 4.87598 8.00398 4.87598C7.68065 4.87598 7.41732 5.13798 7.41732 5.45931ZM8.58073 7.57454C8.58073 7.25321 8.31873 6.99121 7.9974 6.99121C7.67606 6.99121 7.41406 7.25321 7.41406 7.57454V10.5212C7.41406 10.8425 7.67606 11.1045 7.9974 11.1045C8.31873 11.1045 8.58073 10.8425 8.58073 10.5212V7.57454Z" fill="white"/>
</g>
</svg>
