<svg width="16" height="17" viewBox="0 0 16 17" fill="none" xmlns="http://www.w3.org/2000/svg">
<g id="Iconly/Bulk/Location">
<g id="Location">
<path id="Path_34175" fill-rule="evenodd" clip-rule="evenodd" d="M5.6884 2.45752C7.14497 1.61119 8.93534 1.62598 10.3782 2.49627C11.807 3.38428 12.6753 4.96913 12.6672 6.67397C12.634 8.36763 11.7028 9.95967 10.539 11.1904C9.86721 11.9039 9.11573 12.5349 8.29988 13.0704C8.21586 13.119 8.12382 13.1515 8.02831 13.1663C7.93638 13.1624 7.84686 13.1353 7.76782 13.0873C6.52227 12.2827 5.42954 11.2557 4.5422 10.0556C3.79971 9.05392 3.37787 7.84368 3.33398 6.58929C3.33302 4.88117 4.23183 3.30385 5.6884 2.45752ZM6.53033 7.29635C6.77534 7.90039 7.35367 8.2944 7.99529 8.2944C8.41562 8.29742 8.81968 8.12905 9.11743 7.82682C9.41517 7.52458 9.58188 7.11359 9.58039 6.68542C9.58263 6.03186 9.19786 5.44138 8.60573 5.18968C8.0136 4.93799 7.33092 5.07473 6.87643 5.53607C6.42195 5.9974 6.28531 6.69232 6.53033 7.29635Z" fill="white"/>
<ellipse id="Ellipse_743" opacity="0.4" cx="8.00033" cy="14.4997" rx="3.33333" ry="0.666667" fill="white"/>
</g>
</g>
</svg>
