<svg width="16" height="16" viewBox="0 0 16 16" fill="none" xmlns="http://www.w3.org/2000/svg">
<path fill-rule="evenodd" clip-rule="evenodd" d="M11.5204 9.25943C11.9702 9.25943 12.3478 9.63066 12.279 10.0749C11.8755 12.6882 9.63831 14.6286 6.94007 14.6286C3.95481 14.6286 1.53516 12.2089 1.53516 9.22434C1.53516 6.76539 3.40323 4.47487 5.50638 3.95697C5.95831 3.84539 6.42147 4.16329 6.42147 4.62855C6.42147 7.78083 6.52744 8.59627 7.12603 9.03978C7.72463 9.48329 8.42849 9.25943 11.5204 9.25943Z" stroke="#262B2B" stroke-linecap="round" stroke-linejoin="round"/>
<path opacity="0.4" fill-rule="evenodd" clip-rule="evenodd" d="M14.4653 6.6343C14.5011 4.60904 12.0134 1.34448 8.98183 1.40062C8.74604 1.40483 8.55726 1.60132 8.54674 1.83641C8.47025 3.50167 8.57341 5.65956 8.63095 6.63781C8.64849 6.94237 8.88779 7.18167 9.19165 7.19921C10.1973 7.25676 12.4338 7.33535 14.0752 7.08693C14.2983 7.05325 14.4618 6.85956 14.4653 6.6343Z" stroke="#262B2B" stroke-linecap="round" stroke-linejoin="round"/>
</svg>
