<svg width="16" height="17" viewBox="0 0 16 17" fill="none" xmlns="http://www.w3.org/2000/svg">
<g id="Iconly/Bulk/Graph">
<g id="Graph">
<path id="Path" d="M6.7672 4.20389C6.80115 4.273 6.82358 4.34701 6.83362 4.42309L7.01925 7.18304L7.11139 8.57025C7.11234 8.71291 7.13472 8.85465 7.17781 8.9909C7.2891 9.25524 7.55681 9.42325 7.84807 9.41154L12.2863 9.12123C12.4784 9.11807 12.664 9.18995 12.8022 9.32106C12.9173 9.43032 12.9917 9.57325 13.0151 9.72698L13.0229 9.82033C12.8393 12.3635 10.9715 14.4846 8.4336 15.0322C5.89573 15.5798 3.29327 14.4231 2.03917 12.1901C1.67762 11.5414 1.4518 10.8284 1.37495 10.0929C1.34285 9.87512 1.32871 9.6552 1.33268 9.43523C1.32872 6.70869 3.27034 4.35151 5.98825 3.78325C6.31537 3.73231 6.63605 3.90548 6.7672 4.20389Z" fill="white"/>
<path id="Path_2" opacity="0.4" d="M8.57777 1.83404C11.6177 1.91138 14.1726 4.09735 14.6644 7.04169L14.6597 7.06341L14.6463 7.09501L14.6482 7.18174C14.6412 7.29664 14.5969 7.40719 14.5204 7.49649C14.4408 7.5895 14.332 7.65285 14.2122 7.67743L14.1391 7.68746L9.01857 8.01924C8.84825 8.03603 8.67866 7.98111 8.552 7.86813C8.44644 7.77398 8.37896 7.64689 8.3599 7.50995L8.0162 2.39687C8.01022 2.37958 8.01022 2.36084 8.0162 2.34355C8.0209 2.20261 8.08294 2.06939 8.18846 1.97365C8.29398 1.87791 8.4342 1.82763 8.57777 1.83404Z" fill="white"/>
</g>
</g>
</svg>
