<svg width="16" height="17" viewBox="0 0 16 17" fill="none" xmlns="http://www.w3.org/2000/svg">
<path opacity="0.4" d="M1.86914 10.8179C1.86914 10.8179 1.96381 11.9765 1.98581 12.3419C2.01514 12.8319 2.20447 13.3792 2.52047 13.7592C2.96647 14.2979 3.49181 14.4879 4.19314 14.4892C5.01781 14.4905 11.0145 14.4905 11.8391 14.4892C12.5405 14.4879 13.0658 14.2979 13.5118 13.7592C13.8278 13.3792 14.0171 12.8319 14.0471 12.3419C14.0685 11.9765 14.1631 10.8179 14.1631 10.8179" stroke="#262B2B" stroke-linecap="round" stroke-linejoin="round"/>
<path d="M5.66406 4.05283V3.8055C5.66406 2.99216 6.32273 2.3335 7.13606 2.3335H8.8574C9.67006 2.3335 10.3294 2.99216 10.3294 3.8055L10.3301 4.05283" stroke="#262B2B" stroke-linecap="round" stroke-linejoin="round"/>
<path d="M7.99642 11.6185V10.7559" stroke="#262B2B" stroke-linecap="round" stroke-linejoin="round"/>
<path fill-rule="evenodd" clip-rule="evenodd" d="M1.83301 6.09238V8.40371C3.11167 9.24704 4.64367 9.83771 6.32501 10.0717C6.52634 9.33771 7.18834 8.79971 7.99301 8.79971C8.78501 8.79971 9.46034 9.33771 9.64834 10.0784C11.3363 9.84438 12.8743 9.25371 14.1597 8.40371V6.09238C14.1597 4.96304 13.251 4.05371 12.1217 4.05371H3.87767C2.74834 4.05371 1.83301 4.96304 1.83301 6.09238Z" stroke="#262B2B" stroke-linecap="round" stroke-linejoin="round"/>
</svg>
