<svg width="10" height="6" viewBox="0 0 10 6" fill="none" xmlns="http://www.w3.org/2000/svg">
<path d="M5.01058 5.85938C5.23449 5.85757 5.44901 5.76871 5.60859 5.61154L9.74591 1.47422C9.90813 1.31273 9.99952 1.09352 10 0.864672C10.0005 0.635839 9.91005 0.416154 9.74868 0.254048C9.58718 0.0918331 9.36798 0.000442328 9.13913 -3.78995e-05C8.91028 -0.000518127 8.69061 0.0899087 8.52851 0.251283L5.00008 3.77971L1.47166 0.251283L1.47154 0.251283C1.25316 0.0338731 0.935224 -0.0505421 0.637731 0.0299049C0.340115 0.110352 0.108037 0.343406 0.0289227 0.641238C-0.0502005 0.939214 0.0356566 1.25666 0.254148 1.47421L4.39147 5.61154C4.55633 5.77399 4.77962 5.86334 5.01099 5.85937L5.01058 5.85938Z" fill="#454545"/>
</svg>
