<svg width="14" height="15" viewBox="0 0 14 15" fill="none" xmlns="http://www.w3.org/2000/svg">
<path fill-rule="evenodd" clip-rule="evenodd" d="M10.4169 12.4099C11.5107 12.4099 12.3962 11.5238 12.3962 10.4307V8.85567C11.6728 8.85567 11.0895 8.27233 11.0895 7.54958C11.0895 6.82625 11.6728 6.2435 12.3962 6.2435L12.395 4.66675C12.395 3.57358 11.5095 2.6875 10.4163 2.6875H3.58433C2.49116 2.6875 1.60508 3.57358 1.60508 4.66675L1.60449 6.29425C2.32724 6.29425 2.91058 6.82625 2.91058 7.54958C2.91058 8.27233 2.32724 8.85567 1.60449 8.85567V10.4307C1.60449 11.5238 2.48999 12.4099 3.58316 12.4099H10.4169Z" stroke="#262B2B" stroke-width="0.875" stroke-linecap="round" stroke-linejoin="round"/>
<path opacity="0.4" fill-rule="evenodd" clip-rule="evenodd" d="M6.99969 8.58197L8.01469 9.11572C8.10977 9.16531 8.22119 9.08481 8.2031 8.97922L8.00885 7.84814L8.83077 7.04839C8.90777 6.97314 8.86519 6.84306 8.75902 6.82731L7.62385 6.66222L7.11577 5.63322C7.06852 5.53697 6.93144 5.53697 6.8836 5.63322L6.37552 6.66222L5.24094 6.82731C5.13477 6.84306 5.09219 6.97314 5.16919 7.04839L5.99052 7.84814L5.79627 8.97922C5.77819 9.08481 5.8896 9.16531 5.98469 9.11572L6.99969 8.58197Z" stroke="#262B2B" stroke-width="0.875" stroke-linecap="round" stroke-linejoin="round"/>
</svg>
