<svg width="14" height="15" viewBox="0 0 14 15" fill="none" xmlns="http://www.w3.org/2000/svg">
<g id="Iconly/Bulk/3 User">
<g id="3 User">
<path id="Fill 1" d="M6.96836 8.98193C4.95587 8.98193 3.25781 9.31079 3.25781 10.58C3.25781 11.8497 4.96684 12.167 6.96836 12.167C8.98085 12.167 10.6789 11.8381 10.6789 10.5689C10.6789 9.29923 8.96988 8.98193 6.96836 8.98193Z" fill="white"/>
<path id="Fill 3" opacity="0.4" d="M6.97104 7.7726C8.33377 7.7726 9.42646 6.67362 9.42646 5.30305C9.42646 3.93195 8.33377 2.8335 6.97104 2.8335C5.60831 2.8335 4.51562 3.93195 4.51562 5.30305C4.51562 6.67362 5.60831 7.7726 6.97104 7.7726Z" fill="white"/>
<path id="Fill 6" opacity="0.4" d="M12.3007 5.87801C12.6532 4.49115 11.6196 3.24561 10.3033 3.24561C10.1602 3.24561 10.0234 3.26137 9.88966 3.28816C9.8719 3.29236 9.85205 3.30129 9.84161 3.31705C9.82959 3.33701 9.83847 3.3638 9.85153 3.38114C10.2469 3.93903 10.4741 4.61828 10.4741 5.34743C10.4741 6.04611 10.2657 6.69751 9.90011 7.23807C9.8625 7.29376 9.89593 7.36888 9.96226 7.38043C10.0542 7.39672 10.1482 7.40512 10.2443 7.40775C11.2028 7.43297 12.063 6.81256 12.3007 5.87801Z" fill="white"/>
<path id="Fill 8" d="M13.3026 9.14327C13.1271 8.76713 12.7035 8.5092 12.0594 8.3826C11.7555 8.308 10.9328 8.20294 10.1676 8.21712C10.1561 8.21869 10.1498 8.22657 10.1488 8.23183C10.1472 8.23918 10.1504 8.25179 10.1655 8.25967C10.5191 8.43565 11.886 9.20105 11.7142 10.8154C11.7069 10.8852 11.7628 10.9457 11.8322 10.9351C12.1686 10.8868 13.0341 10.6998 13.3026 10.1172C13.4509 9.80938 13.4509 9.45163 13.3026 9.14327Z" fill="white"/>
<path id="Fill 11" opacity="0.4" d="M4.1093 3.28816C3.97611 3.26084 3.83874 3.24561 3.69563 3.24561C2.37938 3.24561 1.34572 4.49115 1.6988 5.87801C1.93594 6.81256 2.79619 7.43297 3.75465 7.40775C3.85075 7.40512 3.94529 7.39619 4.0367 7.38043C4.10303 7.36888 4.13646 7.29376 4.09886 7.23807C3.73323 6.69699 3.52483 6.04611 3.52483 5.34743C3.52483 4.61775 3.75256 3.93851 4.14795 3.38114C4.16049 3.3638 4.16989 3.33701 4.15736 3.31705C4.14691 3.30076 4.12758 3.29236 4.1093 3.28816Z" fill="white"/>
<path id="Fill 13" d="M1.93627 8.38265C1.29225 8.50926 0.869176 8.76719 0.693677 9.14332C0.544816 9.45169 0.544816 9.80943 0.693677 10.1178C0.962148 10.6999 1.82763 10.8874 2.164 10.9352C2.23347 10.9457 2.28884 10.8858 2.28152 10.8154C2.10968 9.20163 3.47659 8.43624 3.83072 8.26025C3.84535 8.25185 3.84848 8.23976 3.84691 8.23188C3.84587 8.22663 3.84012 8.21875 3.82863 8.2177C3.06291 8.20299 2.24078 8.30806 1.93627 8.38265Z" fill="white"/>
</g>
</g>
</svg>
