<svg width="34" height="34" viewBox="0 0 34 34" fill="none" xmlns="http://www.w3.org/2000/svg">
<path d="M28.007 16.4972C26.9721 15.2888 26.5019 14.2415 26.5019 12.4623V11.8574C26.5019 9.53885 25.9682 8.04502 24.8081 6.55118C23.0199 4.23125 20.0097 2.83301 17.0628 2.83301H16.9375C14.0526 2.83301 11.1367 4.16704 9.31757 6.39281C8.09405 7.91661 7.49848 9.47465 7.49848 11.8574V12.4623C7.49848 14.2415 7.05919 15.2888 5.99335 16.4972C5.20911 17.3875 4.9585 18.5318 4.9585 19.7703C4.9585 21.0101 5.3654 22.1844 6.18202 23.1389C7.24786 24.2831 8.75298 25.0137 10.2905 25.1406C12.5165 25.3946 14.7425 25.4902 17.0009 25.4902C19.2578 25.4902 21.4838 25.3304 23.7113 25.1406C25.2474 25.0137 26.7525 24.2831 27.8183 23.1389C28.6335 22.1844 29.0418 21.0101 29.0418 19.7703C29.0418 18.5318 28.7912 17.3875 28.007 16.4972Z" fill="#F3BB1C"/>
<path opacity="0.4" d="M19.846 27.2394C19.1378 27.0882 14.8223 27.0882 14.1141 27.2394C13.5087 27.3792 12.854 27.7045 12.854 28.4179C12.8892 29.0985 13.2877 29.6992 13.8396 30.0801L13.8382 30.0815C14.552 30.638 15.3898 30.9918 16.2669 31.1188C16.7344 31.183 17.2103 31.1802 17.6946 31.1188C18.5704 30.9918 19.4081 30.638 20.1219 30.0815L20.1205 30.0801C20.6725 29.6992 21.0709 29.0985 21.1061 28.4179C21.1061 27.7045 20.4514 27.3792 19.846 27.2394Z" fill="#F3BB1C"/>
</svg>
