<svg width="16" height="17" viewBox="0 0 16 17" fill="none" xmlns="http://www.w3.org/2000/svg">
<g id="Iconly/Bulk/Add User">
<g id="Add User">
<path id="Fill 1" opacity="0.4" d="M14.0677 6.8924H13.2656V6.10823C13.2656 5.77345 12.9971 5.50049 12.6663 5.50049C12.3362 5.50049 12.067 5.77345 12.067 6.10823V6.8924H11.2663C10.9355 6.8924 10.667 7.16536 10.667 7.50014C10.667 7.83492 10.9355 8.10789 11.2663 8.10789H12.067V8.89274C12.067 9.22752 12.3362 9.50049 12.6663 9.50049C12.9971 9.50049 13.2656 9.22752 13.2656 8.89274V8.10789H14.0677C14.3978 8.10789 14.667 7.83492 14.667 7.50014C14.667 7.16536 14.3978 6.8924 14.0677 6.8924" fill="white"/>
<path id="Fill 4" d="M6.33398 10.5107C3.6368 10.5107 1.33398 10.942 1.33398 12.6648C1.33398 14.387 3.62279 14.8337 6.33398 14.8337C9.0305 14.8337 11.334 14.4025 11.334 12.6797C11.334 10.9568 9.04518 10.5107 6.33398 10.5107" fill="white"/>
<path id="Fill 7" opacity="0.4" d="M6.33381 8.8698C8.17019 8.8698 9.64223 7.37879 9.64223 5.51873C9.64223 3.65868 8.17019 2.16699 6.33381 2.16699C4.49743 2.16699 3.02539 3.65868 3.02539 5.51873C3.02539 7.37879 4.49743 8.8698 6.33381 8.8698" fill="white"/>
</g>
</g>
</svg>
