<svg width="14" height="14" viewBox="0 0 14 14" fill="none" xmlns="http://www.w3.org/2000/svg">
<g id="Iconly/Bulk/Ticket Star">
<g id="Ticket Star">
<path id="Fill 1" opacity="0.4" d="M12.3952 7.86122C11.9163 7.86122 11.5266 7.47512 11.5266 7.00058C11.5266 6.52546 11.9163 6.13935 12.3952 6.13935C12.5113 6.13935 12.6227 6.09369 12.7043 6.01277C12.7866 5.93127 12.8327 5.82087 12.8327 5.70585L12.8321 4.14409C12.8321 2.82393 11.7477 1.75 10.4153 1.75H3.58335C2.25102 1.75 1.1666 2.82393 1.1666 4.14409L1.16602 5.75614C1.16602 5.87116 1.2121 5.98156 1.29435 6.06306C1.37602 6.14398 1.48743 6.18964 1.60352 6.18964C2.09877 6.18964 2.4721 6.53818 2.4721 7.00058C2.4721 7.47512 2.08243 7.86122 1.60352 7.86122C1.36202 7.86122 1.16602 8.05543 1.16602 8.29473V9.85533C1.16602 11.1755 2.24985 12.25 3.58277 12.25H10.4159C11.7488 12.25 12.8327 11.1755 12.8327 9.85533V8.29473C12.8327 8.05543 12.6367 7.86122 12.3952 7.86122" fill="white"/>
<path id="Fill 4" d="M9.00074 6.76002L8.31299 7.42969L8.47575 8.37644C8.50375 8.54036 8.43783 8.70194 8.30308 8.79877C8.1695 8.89677 7.99508 8.90902 7.84808 8.83086L6.99933 8.38461L6.14883 8.83144C6.08583 8.86469 6.017 8.88219 5.94875 8.88219C5.8595 8.88219 5.77141 8.85419 5.69558 8.79936C5.56141 8.70194 5.4955 8.54036 5.5235 8.37644L5.68566 7.42969L4.99791 6.76002C4.87891 6.64452 4.8375 6.47477 4.88883 6.31669C4.94075 6.15919 5.07491 6.04719 5.23883 6.02386L6.18733 5.88561L6.61258 5.02402C6.68666 4.87586 6.83483 4.78369 6.99933 4.78369H7.0005C7.16558 4.78427 7.31375 4.87644 7.38666 5.02461L7.81191 5.88561L8.76216 6.02444C8.92433 6.04719 9.0585 6.15919 9.10983 6.31669C9.16175 6.47477 9.12033 6.64452 9.00074 6.76002" fill="white"/>
</g>
</g>
</svg>
