<svg width="24" height="24" viewBox="0 0 24 24" fill="none" xmlns="http://www.w3.org/2000/svg">
<path fill-rule="evenodd" clip-rule="evenodd" d="M14.736 2.76172H8.084C6.025 2.76172 4.25 4.43072 4.25 6.49072V17.2277C4.25 19.4037 5.908 21.1147 8.084 21.1147H16.072C18.132 21.1147 19.802 19.2877 19.802 17.2277V8.03772L14.736 2.76172Z" stroke="#3E66FB" stroke-width="1.5" stroke-linecap="round" stroke-linejoin="round"/>
<path d="M14.4736 2.75V5.659C14.4736 7.079 15.6226 8.231 17.0426 8.234C18.3586 8.237 19.7056 8.238 19.7966 8.232" stroke="#3E66FB" stroke-width="1.5" stroke-linecap="round" stroke-linejoin="round"/>
<path opacity="0.4" fill-rule="evenodd" clip-rule="evenodd" d="M12.1712 8.91073C12.0304 8.76938 11.8392 8.68992 11.6397 8.68994C11.4402 8.68996 11.249 8.76945 11.1082 8.91082L8.27022 11.7618C7.97799 12.0554 7.97908 12.5303 8.27264 12.8225C8.5662 13.1147 9.04108 13.1136 9.3333 12.8201L10.8902 11.256V16.0134C10.8902 16.4276 11.226 16.7634 11.6402 16.7634C12.0544 16.7634 12.3902 16.4276 12.3902 16.0134V11.2565L13.9473 12.8202C14.2396 13.1137 14.7145 13.1147 15.008 12.8224C15.3015 12.5301 15.3025 12.0552 15.0102 11.7617L12.1712 8.91073Z" fill="#3E66FB"/>
</svg>
