<svg width="16" height="17" viewBox="0 0 16 17" fill="none" xmlns="http://www.w3.org/2000/svg">
<path fill-rule="evenodd" clip-rule="evenodd" d="M9.8227 2.34131H5.38803C4.01536 2.34131 2.83203 3.45398 2.83203 4.82731V12.06C2.83203 13.5106 3.93736 14.5766 5.38803 14.5766H10.7134C12.0867 14.5766 13.2 13.4333 13.2 12.06V5.85864L9.8227 2.34131Z" stroke="#262B2B" stroke-linecap="round" stroke-linejoin="round"/>
<path d="M9.64844 2.3335V4.27283C9.64844 5.2195 10.4144 5.9875 11.3611 5.9895C12.2384 5.9915 13.1364 5.99216 13.1971 5.98816" stroke="#262B2B" stroke-linecap="round" stroke-linejoin="round"/>
<path opacity="0.4" fill-rule="evenodd" clip-rule="evenodd" d="M8.39583 7.47607C8.39583 7.19993 8.17198 6.97607 7.89583 6.97607C7.61969 6.97607 7.39583 7.19993 7.39583 7.47607V8.60921H6.26172C5.98558 8.60921 5.76172 8.83307 5.76172 9.10921C5.76172 9.38535 5.98558 9.60921 6.26172 9.60921H7.39583V10.7434C7.39583 11.0195 7.61969 11.2434 7.89583 11.2434C8.17198 11.2434 8.39583 11.0195 8.39583 10.7434V9.60921H9.52905C9.80519 9.60921 10.0291 9.38535 10.0291 9.10921C10.0291 8.83307 9.80519 8.60921 9.52905 8.60921H8.39583V7.47607Z" fill="#262B2B"/>
</svg>
