<svg width="47" height="47" viewBox="0 0 47 47" fill="none" xmlns="http://www.w3.org/2000/svg">
<path opacity="0.4" d="M22.032 31.8613C22.032 31.0505 22.69 30.3808 23.5007 30.3808C24.3115 30.3808 24.9695 31.029 24.9695 31.8398V31.8613C24.9695 32.672 24.3115 33.33 23.5007 33.33C22.69 33.33 22.032 32.672 22.032 31.8613Z" fill="#F03738"/>
<path d="M9.39159 39.9851H37.7522C39.9984 39.8676 41.7256 37.9543 41.6101 35.7081C41.5846 35.2537 41.4867 34.8053 41.3144 34.3862L27.0636 9.44487C25.9748 7.47675 23.4975 6.76392 21.5293 7.85471C20.8596 8.22287 20.3073 8.77512 19.9372 9.44487L5.68642 34.3862C4.84042 36.4699 5.84309 38.8434 7.9248 39.6913C8.3478 39.8617 8.7943 39.9596 9.24863 39.9851" stroke="#F03738" stroke-width="2.9375" stroke-linecap="round" stroke-linejoin="round"/>
<path opacity="0.4" d="M23.4801 26.2341V20.1633" stroke="#F03738" stroke-width="2.9375" stroke-linecap="round" stroke-linejoin="round"/>
</svg>
