<svg width="14" height="15" viewBox="0 0 14 15" fill="none" xmlns="http://www.w3.org/2000/svg">
<path opacity="0.4" d="M10.4336 6.85651C11.2473 6.74217 11.8738 6.04451 11.8756 5.19926C11.8756 4.36626 11.2683 3.67559 10.4721 3.54492" stroke="#262B2B" stroke-width="0.875" stroke-linecap="round" stroke-linejoin="round"/>
<path d="M11.5078 8.8125C12.2959 8.93033 12.846 9.20625 12.846 9.775C12.846 10.1664 12.587 10.4208 12.1681 10.5806" stroke="#262B2B" stroke-width="0.875" stroke-linecap="round" stroke-linejoin="round"/>
<path fill-rule="evenodd" clip-rule="evenodd" d="M6.93311 9.05371C5.05828 9.05371 3.45703 9.33779 3.45703 10.4724C3.45703 11.6064 5.04836 11.8986 6.93311 11.8986C8.80795 11.8986 10.4086 11.6175 10.4086 10.4823C10.4086 9.34713 8.81786 9.05371 6.93311 9.05371Z" stroke="#262B2B" stroke-width="0.875" stroke-linecap="round" stroke-linejoin="round"/>
<path opacity="0.4" fill-rule="evenodd" clip-rule="evenodd" d="M6.9348 7.4345C8.16505 7.4345 9.16255 6.43759 9.16255 5.20675C9.16255 3.9765 8.16505 2.979 6.9348 2.979C5.70455 2.979 4.70705 3.9765 4.70705 5.20675C4.70238 6.43292 5.6923 7.43042 6.91846 7.4345H6.9348Z" stroke="#262B2B" stroke-width="0.875" stroke-linecap="round" stroke-linejoin="round"/>
<path opacity="0.4" d="M3.43028 6.85651C2.61595 6.74217 1.99003 6.04451 1.98828 5.19926C1.98828 4.36626 2.59553 3.67559 3.39178 3.54492" stroke="#262B2B" stroke-width="0.875" stroke-linecap="round" stroke-linejoin="round"/>
<path d="M2.3577 8.8125C1.56961 8.93033 1.01953 9.20625 1.01953 9.775C1.01953 10.1664 1.27853 10.4208 1.69736 10.5806" stroke="#262B2B" stroke-width="0.875" stroke-linecap="round" stroke-linejoin="round"/>
</svg>
