<svg width="16" height="17" viewBox="0 0 16 17" fill="none" xmlns="http://www.w3.org/2000/svg">
<g id="Iconly/Bulk/Info Circle">
<path id="Fill 1" opacity="0.4" d="M14.6654 8.50016C14.6654 12.1828 11.6807 15.1668 7.9987 15.1668C4.3167 15.1668 1.33203 12.1828 1.33203 8.50016C1.33203 4.81883 4.3167 1.8335 7.9987 1.8335C11.6807 1.8335 14.6654 4.81883 14.6654 8.50016Z" fill="white"/>
<path id="Combined Shape" fill-rule="evenodd" clip-rule="evenodd" d="M8.58073 8.92063C8.58073 9.24196 8.31873 9.50396 7.9974 9.50396C7.67606 9.50396 7.41406 9.24196 7.41406 8.92063V5.97396C7.41406 5.65263 7.67606 5.39062 7.9974 5.39062C8.31873 5.39062 8.58073 5.65263 8.58073 5.97396V8.92063ZM7.41797 11.0358C7.41797 10.7145 7.67864 10.4525 7.99797 10.4525C8.32664 10.4525 8.58797 10.7145 8.58797 11.0358C8.58797 11.3571 8.32664 11.6191 8.00464 11.6191C7.6813 11.6191 7.41797 11.3571 7.41797 11.0358Z" fill="white"/>
</g>
</svg>
