<svg width="16" height="16" viewBox="0 0 16 16" fill="none" xmlns="http://www.w3.org/2000/svg">
<g id="Iconly/Bulk/Work">
<g id="Work">
<path id="Fill 1" opacity="0.4" d="M1.33398 7.38623C1.36732 8.9449 1.46065 11.6109 1.47398 11.9049C1.52132 12.5336 1.76198 13.1689 2.13665 13.6169C2.65798 14.2456 3.29998 14.5262 4.19532 14.5262C5.43265 14.5329 6.79665 14.5329 8.12132 14.5329C9.45132 14.5329 10.742 14.5329 11.832 14.5262C12.7147 14.5262 13.3767 14.2382 13.8913 13.6169C14.266 13.1689 14.5067 12.5269 14.5407 11.9049C14.554 11.6576 14.6207 8.76356 14.6607 7.38623H1.33398Z" fill="white"/>
<path id="Fill 4" d="M7.49707 10.2563V11.119C7.49707 11.395 7.72107 11.619 7.99707 11.619C8.27307 11.619 8.49707 11.395 8.49707 11.119V10.2563C8.49707 9.98035 8.27307 9.75635 7.99707 9.75635C7.72107 9.75635 7.49707 9.98035 7.49707 10.2563" fill="white"/>
<path id="Fill 6" fill-rule="evenodd" clip-rule="evenodd" d="M6.80798 9.70465C6.74132 9.94665 6.50865 10.1013 6.25665 10.068C4.55598 9.83065 2.93065 9.22732 1.55865 8.32132C1.41798 8.22932 1.33398 8.07198 1.33398 7.90398V5.59332C1.33398 4.19332 2.47532 3.05465 3.87865 3.05465H5.18998C5.31532 2.08665 6.13532 1.33398 7.13665 1.33398H8.85798C9.85865 1.33398 10.6793 2.08665 10.8047 3.05465H12.1227C13.522 3.05465 14.6607 4.19332 14.6607 5.59332V7.90398C14.6607 8.07198 14.576 8.22865 14.4367 8.32132C13.062 9.23132 11.43 9.83732 9.71799 10.074C9.69465 10.0773 9.67198 10.0787 9.64932 10.0787C9.42332 10.0787 9.22132 9.92598 9.16465 9.70198C9.02998 9.17132 8.54798 8.79998 7.99398 8.79998C7.43265 8.79998 6.95599 9.16332 6.80798 9.70465ZM8.85784 2.33398H7.13651C6.68784 2.33398 6.31317 2.64065 6.20117 3.05465H9.79251C9.68051 2.64065 9.30584 2.33398 8.85784 2.33398Z" fill="white"/>
</g>
</g>
</svg>
