<svg width="16" height="16" viewBox="0 0 16 16" fill="none" xmlns="http://www.w3.org/2000/svg">
<g id="Iconly/Bulk/Folder">
<g id="Folder">
<path id="Folder 2" opacity="0.4" d="M11.2569 3.40957H9.29482C8.80603 3.4128 8.34197 3.19538 8.03223 2.81801L7.38612 1.92476C7.08156 1.54408 6.61752 1.32564 6.12946 1.3332H4.74239C2.25278 1.3332 1.33399 2.79435 1.33399 5.2789V7.96458C1.33089 8.25993 14.6644 8.25955 14.6653 7.96458V7.18372C14.6771 4.69917 13.7821 3.40957 11.2569 3.40957Z" fill="white"/>
<path id="Folder_2" fill-rule="evenodd" clip-rule="evenodd" d="M13.8887 4.36171C14.102 4.61109 14.2669 4.89797 14.3748 5.20764C14.5872 5.84409 14.6855 6.51293 14.6653 7.18344V10.6855C14.6644 10.9805 14.6426 11.275 14.6001 11.5669C14.519 12.0821 14.3378 12.5764 14.0666 13.0221C13.9419 13.2374 13.7906 13.4362 13.6161 13.6137C12.8262 14.3386 11.7773 14.716 10.7056 14.6608H5.28773C4.21431 14.7156 3.16373 14.3384 2.37132 13.6137C2.19892 13.4358 2.04956 13.2371 1.92675 13.0221C1.65715 12.5767 1.47978 12.0819 1.40512 11.5669C1.35764 11.2755 1.33386 10.9807 1.33398 10.6855V7.18344C1.33387 6.89097 1.3497 6.5987 1.38141 6.30794C1.38807 6.25692 1.39807 6.20674 1.40797 6.15708C1.42447 6.07429 1.44068 5.99294 1.44068 5.91159C1.50085 5.56071 1.61062 5.22012 1.7667 4.90002C2.22906 3.91212 3.17748 3.4093 4.73053 3.4093H11.2509C12.1208 3.34202 12.9842 3.60389 13.6694 4.14283C13.7483 4.20975 13.8217 4.28295 13.8887 4.36171ZM4.64763 10.3602H11.3577H11.3696C11.5168 10.3666 11.6605 10.3139 11.7685 10.2139C11.8765 10.1139 11.9399 9.97483 11.9446 9.82783C11.9529 9.69862 11.9103 9.57127 11.826 9.47289C11.729 9.34069 11.5753 9.26179 11.4111 9.25993H4.64763C4.34317 9.25993 4.09635 9.50624 4.09635 9.81008C4.09635 10.1139 4.34317 10.3602 4.64763 10.3602Z" fill="white"/>
</g>
</g>
</svg>
