<svg width="16" height="17" viewBox="0 0 16 17" fill="none" xmlns="http://www.w3.org/2000/svg">
<path fill-rule="evenodd" clip-rule="evenodd" d="M6.58532 10.6372C4.02265 10.6372 1.83398 11.0245 1.83398 12.5765C1.83398 14.1285 4.00932 14.5299 6.58532 14.5299C9.14865 14.5299 11.3367 14.1419 11.3367 12.5905C11.3367 11.0392 9.16198 10.6372 6.58532 10.6372Z" stroke="#262B2B" stroke-linecap="round" stroke-linejoin="round"/>
<path opacity="0.4" fill-rule="evenodd" clip-rule="evenodd" d="M6.58473 8.42367C8.26673 8.42367 9.63006 7.06034 9.63006 5.37834C9.63006 3.69634 8.26673 2.33301 6.58473 2.33301C4.90339 2.33301 3.54006 3.69634 3.54006 5.37834C3.53406 7.05434 4.88739 8.41767 6.56406 8.42367H6.58473Z" stroke="#262B2B" stroke-linecap="round" stroke-linejoin="round"/>
<path d="M12.8031 6.2793V8.95263" stroke="#262B2B" stroke-linecap="round" stroke-linejoin="round"/>
<path d="M14.1671 7.61605H11.4404" stroke="#262B2B" stroke-linecap="round" stroke-linejoin="round"/>
</svg>
