<svg width="16" height="17" viewBox="0 0 16 17" fill="none" xmlns="http://www.w3.org/2000/svg">
<path opacity="0.4" d="M10.7168 1.8335H12.9741C13.9089 1.8335 14.6664 2.5974 14.6664 3.54014V5.81651C14.6664 6.75925 13.9089 7.52315 12.9741 7.52315H10.7168C9.78192 7.52315 9.02441 6.75925 9.02441 5.81651V3.54014C9.02441 2.5974 9.78192 1.8335 10.7168 1.8335" fill="white"/>
<path fill-rule="evenodd" clip-rule="evenodd" d="M3.02536 1.8335H5.28267C6.21751 1.8335 6.97502 2.5974 6.97502 3.54014V5.81651C6.97502 6.75925 6.21751 7.52315 5.28267 7.52315H3.02536C2.09051 7.52315 1.33301 6.75925 1.33301 5.81651V3.54014C1.33301 2.5974 2.09051 1.8335 3.02536 1.8335ZM3.02536 9.47717H5.28267C6.21751 9.47717 6.97502 10.2411 6.97502 11.1838V13.4602C6.97502 14.4023 6.21751 15.1668 5.28267 15.1668H3.02536C2.09051 15.1668 1.33301 14.4023 1.33301 13.4602V11.1838C1.33301 10.2411 2.09051 9.47717 3.02536 9.47717ZM12.974 9.47717H10.7167C9.78184 9.47717 9.02433 10.2411 9.02433 11.1838V13.4602C9.02433 14.4023 9.78184 15.1668 10.7167 15.1668H12.974C13.9088 15.1668 14.6663 14.4023 14.6663 13.4602V11.1838C14.6663 10.2411 13.9088 9.47717 12.974 9.47717Z" fill="white"/>
</svg>
