<svg width="20" height="20" viewBox="0 0 20 20" fill="none" xmlns="http://www.w3.org/2000/svg">
<path opacity="0.4" d="M2.57715 7.83688H17.4304" stroke="#3E66FB" stroke-width="1.5" stroke-linecap="round" stroke-linejoin="round"/>
<path opacity="0.4" fill-rule="evenodd" clip-rule="evenodd" d="M5.54822 11.0914C5.54822 10.6772 5.884 10.3414 6.29822 10.3414H6.30594C6.72015 10.3414 7.05594 10.6772 7.05594 11.0914C7.05594 11.5056 6.72015 11.8414 6.30594 11.8414H6.29822C5.884 11.8414 5.54822 11.5056 5.54822 11.0914ZM10.0038 10.3414C9.58961 10.3414 9.25382 10.6772 9.25382 11.0914C9.25382 11.5056 9.58961 11.8414 10.0038 11.8414H10.0115C10.4258 11.8414 10.7615 11.5056 10.7615 11.0914C10.7615 10.6772 10.4258 10.3414 10.0115 10.3414H10.0038ZM13.7017 10.3414C13.2875 10.3414 12.9517 10.6772 12.9517 11.0914C12.9517 11.5056 13.2875 11.8414 13.7017 11.8414H13.7094C14.1236 11.8414 14.4594 11.5056 14.4594 11.0914C14.4594 10.6772 14.1236 10.3414 13.7094 10.3414H13.7017ZM13.7017 13.5802C13.2875 13.5802 12.9517 13.9159 12.9517 14.3302C12.9517 14.7444 13.2875 15.0802 13.7017 15.0802H13.7094C14.1236 15.0802 14.4594 14.7444 14.4594 14.3302C14.4594 13.9159 14.1236 13.5802 13.7094 13.5802H13.7017ZM9.25382 14.3302C9.25382 13.9159 9.58961 13.5802 10.0038 13.5802H10.0115C10.4258 13.5802 10.7615 13.9159 10.7615 14.3302C10.7615 14.7444 10.4258 15.0802 10.0115 15.0802H10.0038C9.58961 15.0802 9.25382 14.7444 9.25382 14.3302ZM6.29822 13.5802C5.884 13.5802 5.54822 13.9159 5.54822 14.3302C5.54822 14.7444 5.884 15.0802 6.29822 15.0802H6.30594C6.72015 15.0802 7.05594 14.7444 7.05594 14.3302C7.05594 13.9159 6.72015 13.5802 6.30594 13.5802H6.29822Z" fill="#3E66FB"/>
<path d="M13.3698 1.66669V4.409" stroke="#3E66FB" stroke-width="1.5" stroke-linecap="round" stroke-linejoin="round"/>
<path d="M6.63795 1.66669V4.409" stroke="#3E66FB" stroke-width="1.5" stroke-linecap="round" stroke-linejoin="round"/>
<path fill-rule="evenodd" clip-rule="evenodd" d="M13.5319 2.98267H6.4758C4.02856 2.98267 2.5 4.34594 2.5 6.85185V14.3932C2.5 16.9385 4.02856 18.3333 6.4758 18.3333H13.5242C15.9791 18.3333 17.5 16.9622 17.5 14.4563V6.85185C17.5077 4.34594 15.9868 2.98267 13.5319 2.98267Z" stroke="#3E66FB" stroke-width="1.5" stroke-linecap="round" stroke-linejoin="round"/>
</svg>
