<svg width="16" height="16" viewBox="0 0 16 16" fill="none" xmlns="http://www.w3.org/2000/svg">
<g id="Iconly/Bulk/Document">
<g id="Document">
<path id="Path" opacity="0.4" d="M10.794 1.3335H5.20667C3.18 1.3335 2 2.52016 2 4.5535V11.4402C2 13.5068 3.18 14.6668 5.20667 14.6668H10.794C12.8533 14.6668 14 13.5068 14 11.4402V4.5535C14 2.52016 12.8533 1.3335 10.794 1.3335" fill="white"/>
<path id="Combined Shape" fill-rule="evenodd" clip-rule="evenodd" d="M5.38654 4.43327V4.43994C5.0992 4.43994 4.86654 4.67327 4.86654 4.95994C4.86654 5.2466 5.0992 5.47994 5.38654 5.47994H7.3792C7.66654 5.47994 7.89987 5.2466 7.89987 4.9526C7.89987 4.6666 7.66654 4.43327 7.3792 4.43327H5.38654ZM10.6132 8.49314H5.38654C5.0992 8.49314 4.86654 8.25981 4.86654 7.97314C4.86654 7.68647 5.0992 7.45247 5.38654 7.45247H10.6132C10.8999 7.45247 11.1332 7.68647 11.1332 7.97314C11.1332 8.25981 10.8999 8.49314 10.6132 8.49314ZM10.6133 11.5399H5.38664C5.18664 11.5666 4.99331 11.4666 4.88664 11.2999C4.77997 11.1266 4.77997 10.9066 4.88664 10.7399C4.99331 10.5666 5.18664 10.4732 5.38664 10.4932H10.6133C10.8793 10.5199 11.08 10.7466 11.08 11.0199C11.08 11.2859 10.8793 11.5132 10.6133 11.5399Z" fill="white"/>
</g>
</g>
</svg>
