<?xml version="1.0" standalone="no"?>
<!DOCTYPE svg PUBLIC "-//W3C//DTD SVG 20010904//EN"
 "http://www.w3.org/TR/2001/REC-SVG-20010904/DTD/svg10.dtd">
<svg version="1.0" xmlns="http://www.w3.org/2000/svg"
 width="1052.000000pt" height="1052.000000pt" viewBox="0 0 1052.000000 1052.000000"
 preserveAspectRatio="xMidYMid meet">
<metadata>
Created by potrace 1.14, written by Peter Selinger 2001-2017
</metadata>
<g transform="translate(0.000000,1052.000000) scale(0.100000,-0.100000)"
fill="#000000" stroke="none">
<path d="M2965 9769 c0 -702 -1 -751 -17 -766 -10 -9 -18 -13 -18 -10 0 4 -22
-2 -50 -12 -27 -11 -50 -18 -50 -16 0 2 -51 -15 -112 -36 -62 -22 -120 -42
-128 -44 -8 -2 -46 -15 -85 -30 -38 -14 -74 -28 -80 -29 -5 -2 -21 -8 -35 -13
-14 -6 -66 -27 -117 -47 -50 -19 -116 -47 -147 -61 -30 -14 -58 -25 -61 -25
-8 0 -66 -27 -248 -114 -76 -36 -142 -66 -148 -66 -5 0 -9 -5 -9 -10 0 -6 -3
-9 -7 -8 -5 2 -70 -30 -145 -70 -76 -39 -142 -72 -147 -72 -14 0 -26 -32 -35
-95 -3 -16 -7 -46 -10 -65 -17 -105 -41 -495 -51 -830 -19 -645 -28 -2254 -13
-2410 14 -153 17 -176 23 -215 3 -22 8 -58 10 -80 3 -22 7 -51 10 -65 4 -14 8
-38 10 -55 5 -35 12 -70 19 -93 3 -9 8 -33 11 -52 8 -49 52 -222 77 -305 12
-38 23 -73 24 -77 1 -5 3 -10 4 -13 1 -3 3 -8 4 -12 3 -11 26 -85 33 -103 3
-8 7 -19 8 -25 5 -17 94 -244 112 -283 9 -21 38 -83 65 -140 26 -56 48 -107
48 -111 0 -5 3 -11 8 -13 4 -1 29 -46 55 -98 26 -52 52 -102 57 -110 5 -8 37
-62 71 -120 103 -175 262 -410 381 -565 25 -32 194 -242 203 -251 5 -7 30 -35
55 -64 72 -84 77 -90 173 -194 121 -131 322 -331 433 -431 48 -44 100 -91 115
-105 15 -14 48 -43 74 -65 26 -22 52 -45 59 -50 11 -10 108 -92 154 -130 14
-11 30 -25 36 -30 6 -6 43 -35 81 -65 39 -30 72 -57 75 -60 3 -3 21 -17 40
-30 19 -13 37 -27 40 -31 3 -3 68 -52 145 -107 77 -56 145 -106 152 -112 12
-10 410 -273 448 -297 11 -6 80 -48 153 -92 73 -45 136 -81 141 -81 5 0 11 -3
13 -7 2 -5 28 -21 58 -37 30 -16 62 -35 70 -42 8 -7 17 -12 20 -12 5 1 16 -5
155 -77 l70 -36 95 48 c52 26 127 65 165 87 39 21 84 46 100 54 17 9 32 18 35
21 3 3 16 12 29 19 13 8 38 22 55 31 57 32 271 165 276 171 3 4 12 10 20 13 8
4 27 15 41 25 14 9 39 26 55 36 16 10 47 31 69 46 22 15 76 52 120 81 44 30
82 57 85 60 3 3 28 20 55 39 28 19 52 36 55 40 3 3 30 23 60 45 30 22 61 44
67 50 15 12 40 31 118 90 33 25 69 53 80 63 11 9 56 45 100 81 44 35 85 69 90
75 6 6 31 28 57 49 26 21 53 43 60 50 7 7 33 30 58 51 164 143 590 556 590
572 0 3 12 17 27 32 26 26 84 90 143 158 25 29 167 199 182 219 5 6 27 35 50
65 24 30 45 57 48 60 19 17 242 343 295 430 21 36 43 68 48 71 5 3 8 8 6 10
-1 2 10 23 24 46 15 24 27 44 27 46 0 2 22 42 48 88 91 160 302 618 302 657 0
5 7 23 15 38 8 16 15 36 15 45 0 9 3 19 7 23 5 4 8 11 9 14 0 4 3 14 6 22 9
23 61 196 74 245 4 15 10 39 37 155 23 94 33 143 42 205 2 11 4 20 5 20 1 0 3
11 5 25 1 14 5 39 8 55 6 31 11 70 23 165 6 52 9 82 19 210 10 128 4 1472 -10
2020 -3 135 -7 298 -8 362 -1 65 -5 118 -9 118 -4 0 -3 11 2 24 5 13 6 26 4
29 -3 3 -7 54 -10 113 -2 60 -7 145 -10 189 -3 44 -7 105 -9 135 -9 135 -18
208 -36 292 -10 43 -14 48 -67 74 -31 16 -64 34 -74 42 -9 7 -22 14 -30 16 -7
1 -20 6 -28 11 -38 24 -246 125 -257 125 -7 0 -13 4 -13 10 0 5 -12 13 -27 16
-16 4 -32 10 -38 14 -5 4 -48 24 -95 45 -47 20 -101 44 -120 52 -19 8 -48 21
-65 29 -82 36 -154 61 -159 56 -3 -3 -6 0 -6 6 0 7 -8 12 -18 12 -10 0 -22 4
-27 9 -8 7 -64 28 -95 36 -3 1 -12 5 -20 8 -8 3 -42 16 -75 27 -33 12 -67 24
-75 27 -8 4 -17 7 -20 8 -3 0 -66 21 -140 45 -144 47 -142 47 -165 49 -13 1
-15 92 -15 756 0 415 -3 755 -6 755 -3 0 -278 -273 -612 -606 -333 -333 -615
-609 -626 -614 -11 -4 -33 -4 -48 1 -15 4 -56 10 -91 14 -35 3 -77 8 -93 11
-16 4 -53 7 -81 8 -29 0 -53 3 -53 6 0 3 -21 5 -48 6 -26 1 -83 4 -127 8 -76
6 -294 17 -400 19 -28 1 -56 -2 -63 -7 -6 -4 -12 -4 -12 1 0 4 -39 7 -87 6
-49 0 -88 -2 -88 -2 0 -1 -63 -4 -140 -7 -195 -7 -224 -9 -430 -28 -22 -3 -65
-7 -95 -11 -30 -4 -66 -9 -80 -10 -50 -6 -135 -17 -143 -19 -4 0 -285 277
-625 616 l-618 618 1 -751z"/>
</g>
</svg>
